<?xml version="1.0" standalone="no"?>
<!DOCTYPE svg PUBLIC "-//W3C//DTD SVG 20010904//EN"
 "http://www.w3.org/TR/2001/REC-SVG-20010904/DTD/svg10.dtd">
<svg version="1.0" xmlns="http://www.w3.org/2000/svg"
 width="40.000000pt" height="40.000000pt" viewBox="0 0 40.000000 40.000000"
 preserveAspectRatio="xMidYMid meet">

<g transform="translate(0.000000,44.000000) scale(0.100000,-0.100000)"
fill="#16a34a" stroke="none">
<path d="M298 286 c-21 -8 -38 -11 -38 -9 0 3 -7 0 -15 -7 -29 -24 1 -32 36
-11 19 12 43 21 54 21 14 0 6 -9 -26 -29 -40 -25 -46 -33 -42 -55 6 -31 18
-32 59 -7 35 21 79 85 69 101 -8 14 -52 12 -97 -4z"/>
<path d="M50 255 c0 -23 67 -106 78 -97 1 2 10 -4 18 -13 17 -16 69 -21 78 -6
7 11 -52 64 -95 87 -17 8 -29 18 -26 20 8 9 90 -33 120 -61 30 -29 32 -28 15
10 -17 37 -77 65 -138 65 -27 0 -50 -2 -50 -5z"/>
</g>
</svg>
